<svg viewBox="0 0 14 15" fill="none" xmlns="http://www.w3.org/2000/svg">
  <path d="M2.9067 4.69817C3.6116 4.69817 4.18304 4.12674 4.18304 3.42184C4.18304 2.71694 3.6116 2.14551 2.9067 2.14551C2.2018 2.14551 1.63037 2.71694 1.63037 3.42184C1.63037 4.12674 2.2018 4.69817 2.9067 4.69817Z" fill="currentColor"/>
  <path d="M5.38801 5.66523V12.7463H7.58659V9.24457C7.58659 8.32057 7.76043 7.42573 8.90609 7.42573C10.036 7.42573 10.05 8.48215 10.05 9.3029V12.7469H12.2498V8.86365C12.2498 6.95615 11.8391 5.49023 9.60959 5.49023C8.53918 5.49023 7.82168 6.07765 7.52826 6.63357H7.49851V5.66523H5.38801ZM1.80518 5.66523H4.00726V12.7463H1.80518V5.66523Z" fill="currentColor"/>
</svg>
