<svg viewBox="0 0 14 15" fill="none" xmlns="http://www.w3.org/2000/svg">
<path d="M6.99958 4.80322C6.2842 4.80322 5.59813 5.08741 5.09228 5.59325C4.58643 6.0991 4.30225 6.78518 4.30225 7.50056C4.30225 8.21593 4.58643 8.90201 5.09228 9.40786C5.59813 9.91371 6.2842 10.1979 6.99958 10.1979C7.71496 10.1979 8.40103 9.91371 8.90688 9.40786C9.41273 8.90201 9.69691 8.21593 9.69691 7.50056C9.69691 6.78518 9.41273 6.0991 8.90688 5.59325C8.40103 5.08741 7.71496 4.80322 6.99958 4.80322ZM6.99958 9.25231C6.53483 9.25231 6.08912 9.06769 5.76049 8.73906C5.43187 8.41043 5.24725 7.96472 5.24725 7.49997C5.24725 7.03522 5.43187 6.58951 5.76049 6.26089C6.08912 5.93226 6.53483 5.74764 6.99958 5.74764C7.46433 5.74764 7.91004 5.93226 8.23867 6.26089C8.56729 6.58951 8.75191 7.03522 8.75191 7.49997C8.75191 7.96472 8.56729 8.41043 8.23867 8.73906C7.91004 9.06769 7.46433 9.25231 6.99958 9.25231Z" fill="currentColor"/>
<path d="M9.80364 5.33286C10.1509 5.33286 10.4325 5.05132 10.4325 4.70403C10.4325 4.35673 10.1509 4.0752 9.80364 4.0752C9.45634 4.0752 9.1748 4.35673 9.1748 4.70403C9.1748 5.05132 9.45634 5.33286 9.80364 5.33286Z"/>
<path d="M11.9774 4.06476C11.8424 3.71603 11.636 3.39934 11.3715 3.13496C11.107 2.87058 10.7903 2.66434 10.4415 2.52943C10.0333 2.37622 9.60216 2.29338 9.16631 2.28443C8.60456 2.25993 8.42664 2.25293 7.00214 2.25293C5.57764 2.25293 5.39506 2.25293 4.83798 2.28443C4.40245 2.29292 3.97158 2.37578 3.56398 2.52943C3.21511 2.66418 2.89826 2.87037 2.63375 3.13477C2.36925 3.39917 2.16294 3.71594 2.02806 4.06476C1.87482 4.47287 1.79217 4.90408 1.78364 5.33993C1.75856 5.9011 1.75098 6.07901 1.75098 7.5041C1.75098 8.9286 1.75098 9.11001 1.78364 9.66826C1.79239 10.1046 1.87464 10.5351 2.02806 10.944C2.16332 11.2927 2.36983 11.6094 2.6344 11.8737C2.89896 12.1381 3.21576 12.3443 3.56456 12.4793C3.9714 12.6387 4.40244 12.7275 4.83914 12.7418C5.40089 12.7663 5.57881 12.7739 7.00331 12.7739C8.42781 12.7739 8.61039 12.7739 9.16748 12.7418C9.60329 12.733 10.0344 12.6503 10.4426 12.4974C10.7913 12.3622 11.108 12.1558 11.3725 11.8913C11.6369 11.6269 11.8433 11.3102 11.9786 10.9615C12.132 10.5532 12.2142 10.1227 12.223 9.68635C12.2481 9.12518 12.2556 8.94726 12.2556 7.52218C12.2556 6.0971 12.2556 5.91626 12.223 5.35801C12.2162 4.91601 12.1331 4.47849 11.9774 4.06476ZM11.2669 9.6251C11.2631 9.96127 11.2018 10.2943 11.0855 10.6098C10.9979 10.8366 10.8638 11.0426 10.6918 11.2145C10.5198 11.3864 10.3137 11.5204 10.0868 11.6078C9.77486 11.7236 9.44535 11.785 9.11264 11.7893C8.55848 11.8149 8.40214 11.8213 6.98114 11.8213C5.55898 11.8213 5.41373 11.8213 4.84906 11.7893C4.51652 11.7852 4.18717 11.7238 3.87548 11.6078C3.64779 11.5209 3.44089 11.3872 3.26816 11.2152C3.09543 11.0433 2.96071 10.837 2.87273 10.6098C2.75807 10.2977 2.69674 9.96859 2.69131 9.63618C2.66623 9.08201 2.66039 8.92568 2.66039 7.50468C2.66039 6.0831 2.66039 5.93785 2.69131 5.3726C2.69508 5.03661 2.75644 4.70376 2.87273 4.38851C3.05064 3.92826 3.41523 3.56601 3.87548 3.38985C4.18732 3.27443 4.51657 3.21308 4.84906 3.20843C5.40381 3.18335 5.55956 3.17635 6.98114 3.17635C8.40273 3.17635 8.54856 3.17635 9.11264 3.20843C9.44538 3.21243 9.77494 3.2738 10.0868 3.38985C10.3137 3.47751 10.5197 3.61163 10.6917 3.78361C10.8637 3.9556 10.9978 4.16164 11.0855 4.38851C11.2001 4.70057 11.2615 5.02969 11.2669 5.3621C11.292 5.91685 11.2984 6.0726 11.2984 7.49418C11.2984 8.91518 11.2984 9.06801 11.2733 9.62568H11.2669V9.6251Z" fill="currentColor"/>
</svg>
